<svg xmlns="http://www.w3.org/2000/svg" viewBox="0 0 800 800" role="img" aria-labelledby="title desc">
  <title id="title">Profile illustration</title>
  <desc id="desc">A clean developer profile illustration for Sanju's portfolio.</desc>
  <defs>
    <linearGradient id="bg" x1="0" x2="1" y1="0" y2="1">
      <stop offset="0" stop-color="#38bdf8"/>
      <stop offset="1" stop-color="#8b5cf6"/>
    </linearGradient>
    <linearGradient id="shirt" x1="0" x2="1" y1="0" y2="1">
      <stop offset="0" stop-color="#0f172a"/>
      <stop offset="1" stop-color="#1e293b"/>
    </linearGradient>
  </defs>
  <rect width="800" height="800" rx="80" fill="url(#bg)"/>
  <circle cx="400" cy="300" r="135" fill="#f8c7a4"/>
  <path d="M270 290c5-110 72-170 162-160 89 10 132 76 121 172-63-16-122-54-169-116-20 52-58 86-114 104z" fill="#111827"/>
  <path d="M220 710c27-150 115-230 180-230s153 80 180 230H220z" fill="url(#shirt)"/>
  <path d="M318 510l82 92 82-92c-24-20-52-30-82-30s-58 10-82 30z" fill="#e0f2fe"/>
  <rect x="220" y="575" width="360" height="98" rx="22" fill="#020617" opacity=".65"/>
  <text x="400" y="639" text-anchor="middle" font-family="Poppins, Arial, sans-serif" font-size="54" font-weight="700" fill="#38bdf8">SANJU</text>
</svg>
