<svg xmlns="http://www.w3.org/2000/svg" viewBox="0 0 900 600" role="img" aria-labelledby="title desc">
  <title id="title">Pet Care Website preview</title>
  <desc id="desc">A browser mockup preview for a pet care website project.</desc>
  <rect width="900" height="600" fill="#0f172a"/>
  <rect x="80" y="80" width="740" height="440" rx="28" fill="#f8fafc"/>
  <rect x="80" y="80" width="740" height="70" rx="28" fill="#38bdf8"/>
  <circle cx="125" cy="115" r="10" fill="#0f172a"/>
  <circle cx="160" cy="115" r="10" fill="#0f172a" opacity=".7"/>
  <circle cx="195" cy="115" r="10" fill="#0f172a" opacity=".45"/>
  <circle cx="355" cy="330" r="68" fill="#f59e0b"/>
  <circle cx="310" cy="275" r="28" fill="#f59e0b"/>
  <circle cx="400" cy="275" r="28" fill="#f59e0b"/>
  <circle cx="320" cy="340" r="10" fill="#111827"/>
  <circle cx="390" cy="340" r="10" fill="#111827"/>
  <path d="M335 380c20 16 40 16 60 0" fill="none" stroke="#111827" stroke-width="10" stroke-linecap="round"/>
  <rect x="500" y="235" width="210" height="28" rx="14" fill="#0f172a"/>
  <rect x="500" y="288" width="250" height="18" rx="9" fill="#94a3b8"/>
  <rect x="500" y="328" width="190" height="18" rx="9" fill="#94a3b8"/>
  <rect x="500" y="385" width="150" height="46" rx="23" fill="#8b5cf6"/>
</svg>
