<svg xmlns="http://www.w3.org/2000/svg" viewBox="0 0 900 600" role="img" aria-labelledby="title desc">
  <title id="title">Portfolio preview</title>
  <desc id="desc">A personal portfolio website mockup with profile and project cards.</desc>
  <rect width="900" height="600" fill="#111827"/>
  <rect x="90" y="80" width="720" height="440" rx="28" fill="#020617"/>
  <rect x="130" y="130" width="230" height="34" rx="17" fill="#38bdf8"/>
  <rect x="130" y="195" width="310" height="26" rx="13" fill="#f8fafc"/>
  <rect x="130" y="245" width="250" height="18" rx="9" fill="#64748b"/>
  <rect x="130" y="282" width="290" height="18" rx="9" fill="#64748b"/>
  <rect x="130" y="340" width="130" height="46" rx="23" fill="#8b5cf6"/>
  <circle cx="615" cy="260" r="105" fill="#38bdf8"/>
  <circle cx="615" cy="238" r="58" fill="#f8c7a4"/>
  <path d="M530 382c22-58 55-87 85-87s63 29 85 87H530z" fill="#0f172a"/>
  <rect x="130" y="430" width="150" height="48" rx="12" fill="#1e293b"/>
  <rect x="310" y="430" width="150" height="48" rx="12" fill="#1e293b"/>
  <rect x="490" y="430" width="150" height="48" rx="12" fill="#1e293b"/>
</svg>
